<?xml version="1.0" encoding="utf-8"?>
<!-- Generator: Adobe Illustrator 23.0.4, SVG Export Plug-In . SVG Version: 6.00 Build 0)  -->
<svg version="1.1" id="Layer_1" xmlns="http://www.w3.org/2000/svg" xmlns:xlink="http://www.w3.org/1999/xlink" x="0px" y="0px"
	 viewBox="0 0 459.97 275.87" style="enable-background:new 0 0 459.97 275.87;" xml:space="preserve">
<style type="text/css">
	.st0{fill:#D5DDDE;}
	.st1{fill:#F2F3F3;}
	.st2{fill:#E4E8E8;}
	.st3{fill:#BFCAC3;}
	.st4{fill:#E7EAE7;}
	.st5{fill:#DDD7C6;}
	.st6{fill:#FFF6D6;}
</style>
<g>
	<path class="st0" d="M101.06,27.25H5.5c-3.04,0-5.5-2.46-5.5-5.5s2.46-5.5,5.5-5.5h95.56c3.04,0,5.5,2.46,5.5,5.5
		S104.1,27.25,101.06,27.25z"/>
	<path class="st0" d="M101.06,71.75H5.5c-3.04,0-5.5-2.46-5.5-5.5c0-3.04,2.46-5.5,5.5-5.5h95.56c3.04,0,5.5,2.46,5.5,5.5
		C106.56,69.28,104.1,71.75,101.06,71.75z"/>
	<path class="st0" d="M101.06,205.25H5.5c-3.04,0-5.5-2.46-5.5-5.5s2.46-5.5,5.5-5.5h95.56c3.04,0,5.5,2.46,5.5,5.5
		S104.1,205.25,101.06,205.25z"/>
	<path class="st0" d="M101.06,116.25H5.5c-3.04,0-5.5-2.46-5.5-5.5s2.46-5.5,5.5-5.5h95.56c3.04,0,5.5,2.46,5.5,5.5
		S104.1,116.25,101.06,116.25z"/>
	<path class="st0" d="M101.06,160.75H5.5c-3.04,0-5.5-2.46-5.5-5.5s2.46-5.5,5.5-5.5h95.56c3.04,0,5.5,2.46,5.5,5.5
		S104.1,160.75,101.06,160.75z"/>
</g>
<rect x="79.79" class="st1" width="341.67" height="219.31"/>
<polygon class="st2" points="250.63,120.44 79.79,0 421.46,0 "/>
<g>
	<g id="XMLID_2_">
		<polygon class="st3" points="453.97,22.03 343.04,275.87 273.52,223.24 		"/>
		<polygon class="st3" points="453.97,22.03 273.52,223.24 282.82,203.31 		"/>
		<polygon class="st3" points="453.97,22.03 282.82,203.31 260.38,211.22 		"/>
		<polygon class="st3" points="453.97,22.03 260.38,211.22 181.33,183.92 		"/>
	</g>
</g>
<g>
	<g id="XMLID_1_">
		<polygon class="st4" points="459.97,21.99 349.04,275.83 279.52,223.2 		"/>
		<polygon class="st5" points="459.97,21.99 279.52,223.2 288.82,203.27 		"/>
		<polygon class="st6" points="459.97,21.99 288.82,203.27 266.38,211.19 		"/>
		<polygon class="st4" points="459.97,21.99 266.38,211.19 187.33,183.88 		"/>
	</g>
</g>
</svg>
