<?xml version="1.0" encoding="utf-8"?>
<!-- Generator: Adobe Illustrator 21.0.0, SVG Export Plug-In . SVG Version: 6.00 Build 0)  -->
<svg version="1.1" id="Layer_1" xmlns="http://www.w3.org/2000/svg" xmlns:xlink="http://www.w3.org/1999/xlink" x="0px" y="0px"
	 viewBox="0 0 182 182" style="enable-background:new 0 0 182 182;" xml:space="preserve">
<style type="text/css">
	.st0{fill:#F88600;}
	.st1{fill:#FFAF01;}
	.st2{fill:#FFCC01;}
	.st3{display:none;}
	.st4{display:inline;fill:#404040;}
</style>
<g>
	<path class="st0" d="M90.1,0.7c34.9,73.8-37.5,94.6-37.5,123c0,86.5,118.3,65.6,118.3,1.4C170.9,75.3,90.1,0.7,90.1,0.7z"/>
	<path class="st1" d="M87.1,9.2C49.3,48,117.9,108.4,114,135c-12.2,81.2-115.4,34.8-101.6-24.2C23,65.1,87.1,9.2,87.1,9.2z"/>
	<path class="st2" d="M81.9,27.5c23.6,56.6-32.1,69.3-26,112.2c10.4,73.6,108.1,37.7,98.3-16.6C146.6,81,81.9,27.5,81.9,27.5z"/>
</g>
<text transform="matrix(1 0 0 1 7.3342 246.6621)" class="st3"><tspan x="0" y="0" class="st4" style="font-family:'Raleway-Regular'; font-size:50.2995px; letter-spacing:-2;">F</tspan><tspan x="27.2" y="0" class="st4" style="font-family:'Raleway-Regular'; font-size:50.2995px; letter-spacing:-1;">i</tspan><tspan x="36.6" y="0" class="st4" style="font-family:'Raleway-Regular'; font-size:50.2995px; letter-spacing:-3;">r</tspan><tspan x="50.5" y="0" class="st4" style="font-family:'Raleway-Regular'; font-size:50.2995px; letter-spacing:-3;">es</tspan><tspan x="98.1" y="0" class="st4" style="font-family:'Raleway-Regular'; font-size:50.2995px; letter-spacing:-2;">i</tspan><tspan x="106.6" y="0" class="st4" style="font-family:'Raleway-Regular'; font-size:50.2995px; letter-spacing:-3;">d</tspan><tspan x="134.7" y="0" class="st4" style="font-family:'Raleway-Regular'; font-size:50.2995px; letter-spacing:2;">e</tspan></text>
</svg>
